<svg xmlns="http://www.w3.org/2000/svg" width="256" height="256"><path fill="#1976D2" fill-opacity=".016" fill-rule="evenodd" d="M0 128.004v128.004l128.25-.254 128.25-.254.254-127.75L257.008 0H0zm.485.496c0 70.4.119 99.053.265 63.672s.146-92.98 0-128S.485 58.1.485 128.5"/><path fill="#1976D2" fill-opacity=".095" fill-rule="evenodd" d="M0 127.508V205l63.25-.215c34.788-.118 57.963-.358 51.5-.532l-11.75-.316-.009-24.719-.01-24.718-2.928 5.106c-3.208 5.593-9.097 9.958-17.553 13.01-3.986 1.439-8.041 1.804-20 1.799-14.161-.006-15.476-.176-23.5-3.04-4.675-1.669-9.288-3.384-10.25-3.811-1.487-.661-1.75-.236-1.75 2.829V174H4V90h22.976l.262 37.25.262 37.25 3.865-7.54 3.866-7.54 4.634 2.263c6.97 3.405 15.674 5.317 24.196 5.317C75.978 157 80 154.858 80 148.51c0-3.419-5.451-5.895-16.5-7.496-18.247-2.644-26.59-6.17-31.246-13.207-2.338-3.532-2.704-5.109-2.714-11.695-.009-5.302.505-8.566 1.694-10.756 4.1-7.55 12.73-13.164 23.766-15.46 8.181-1.702 27.96-.607 36 1.993 9.791 3.166 9.551 2.651 5.437 11.685-1.986 4.359-3.783 8.1-3.993 8.312-.211.213-2.609-.571-5.33-1.741-6.251-2.69-17.903-4.375-24.343-3.52-6.662.884-10.992 4.47-10.574 8.759.418 4.302 4.37 6.018 19.761 8.583 17.72 2.954 25.909 7.292 29.625 15.695 1.049 2.372 1.268-1.471 1.336-23.412L103 90h23v4.5c0 2.475.245 4.5.544 4.5s1.761-1.172 3.25-2.605c5.616-5.407 10.637-6.895 23.258-6.895 11.299 0 11.714.081 19 3.686 8.439 4.177 12.292 7.768 17.316 16.144l3.498 5.83 1.692-3.33c5.008-9.86 15.619-18.302 26.81-21.332 8.148-2.205 24.006-1.711 30.382.947l4.25 1.772-.063 14.142c-.047 10.401-.326 13.48-1.054 11.641-.544-1.375-2.651-4.207-4.682-6.293-10.044-10.32-28.43-7.282-34.598 5.718C212.374 125.229 211.7 125 235 125h21v13h-21c-13.87 0-21 .353-21 1.04 0 2.431 4.211 8.988 7.527 11.722 4.579 3.774 9.575 5.249 17.589 5.194 5.653-.039 8.848-.762 15.134-3.428 1.603-.679 1.75.142 1.75 9.748 0 12.353.981 11.515-14.5 12.378-16.369.913-28.655-3.042-38.733-12.468-2.731-2.556-6.098-6.878-7.48-9.606l-2.513-4.96-2.637 5.374c-7.222 14.718-22.44 22.981-40.027 21.733-8.316-.591-14.842-2.948-19.868-7.176L127 164.822v40.193l64.75-.258 64.75-.257.256-77.5.256-77.5-128.506.258L0 50.015zm.423-.008.063 78 .264-68.376.264-68.376 2.081 2.646C6.038 75.135 10.165 77 15.5 77 24.112 77 30 71.889 30 64.412c0-5.733-1.628-9.019-5.723-11.55-2.777-1.716-4.552-2.014-9.956-1.67-6.045.385-6.845.712-9.897 4.042l-3.32 3.623-.372-4.678C.528 51.605.389 84.6.423 127.5m140.753-18.362c-4.591 1.322-11.447 8.461-12.946 13.478-.677 2.264-1.226 6.764-1.22 10 .025 15.464 12.491 25.862 26.868 22.413 5.886-1.412 11.454-5.828 14.342-11.376 3.059-5.876 3.112-17.537.105-23.153-5.539-10.346-15.788-14.635-27.149-11.362"/><path fill="#1976D2" fill-opacity=".137" fill-rule="evenodd" d="m.002 55.75.001 5.75L1.752 58c1.137-2.278 3.306-4.286 6.21-5.75L12.424 50H0zm22.67-3.812c7.088 3.218 9.635 9.351 6.88 16.566-2.275 5.955-6.849 8.774-14.131 8.709C7.569 77.142 2.939 73.94.652 67c-.272-.825-.53 29.888-.573 68.25L0 205h103l-.004-24.75-.003-24.75-2.102 3.5c-3.256 5.424-5.965 7.981-11.391 10.75-7.845 4.003-14.05 5.225-26.59 5.238-12.205.013-23.572-2.134-31.16-5.884L28 167.251V174H3V90h25l.036 36.75.036 36.75 3.421-7.292 3.421-7.292 3.793 1.905c8.373 4.206 14.567 5.606 24.963 5.643 8.816.031 10.547-.245 13-2.072 3.679-2.74 3.826-6.951.33-9.496-1.547-1.126-7.265-2.603-15-3.874-15.495-2.547-20.505-4.165-25.411-8.209-10.03-8.268-10.291-24.144-.558-33.92 8.267-8.302 23.715-12.105 40.695-10.018 9.05 1.112 20.757 4.297 22.695 6.175.684.662-4.635 14.278-6.912 17.693-.089.134-1.991-.64-4.226-1.72-5.78-2.793-11.69-3.97-20.065-3.999-8.471-.028-13.729 1.808-15.347 5.36-2.606 5.719 1.237 8.05 18.4 11.164 19.057 3.457 25.66 6.628 29.688 14.256l1.953 3.696.044-25.75L103 90h23v9.374l2.75-2.624c4.072-3.885 12.756-7.538 19.687-8.28 16.839-1.803 33.375 6.689 41.303 21.213l2.83 5.182 2.674-4.757c8.448-15.029 28.733-24.221 46.847-21.23 3.899.644 8.624 1.812 10.5 2.595L256 92.898l-.022 14.801-.022 14.801-1.846-4c-1.015-2.2-2.924-4.991-4.242-6.202-6.119-5.626-17.131-6.974-24.893-3.048-4.784 2.42-9.78 8.658-10.211 12.75l-.264 2.5h41.501v7.25L256 139h-41.896l1.098 3.15c1.827 5.241 8.009 10.565 14.436 12.433 7.082 2.059 16.222 1.498 22.134-1.359l4.228-2.043v10.803c0 9.339-.237 10.902-1.75 11.543-3.26 1.381-23.628 1.744-29.496.526-12.152-2.523-24.899-11.537-29.744-21.034l-2.203-4.318-2.948 5.399c-4.134 7.572-10.266 13.48-17.859 17.209-6.212 3.05-7.031 3.191-18.5 3.191-11.076 0-12.39-.206-17.063-2.672-2.784-1.47-5.652-3.382-6.372-4.25-.721-.868-1.705-1.578-2.187-1.578-.483 0-.878 8.778-.878 19.507v19.508l64.75-.258 64.75-.257.309-62c.169-34.1.009-68.862-.356-77.25L255.789 50l-118.644.022c-117.248.022-118.596.044-114.473 1.916M.473 135.5c.001 38.5.125 54.105.277 34.677s.151-50.928-.001-70C.598 81.105.473 97 .473 135.5m142.291-26.56c-12.477 4.011-18.503 17.126-14.382 31.301 1.271 4.374 2.634 6.483 6.236 9.654 5.108 4.496 8.796 5.567 16.868 4.898 7.321-.607 12.712-4.276 16.096-10.954 2.312-4.563 2.571-6.096 2.264-13.41-.305-7.289-.703-8.768-3.39-12.594-1.675-2.384-4.908-5.365-7.186-6.625-4.614-2.55-12.332-3.612-16.506-2.27"/><path fill="#1976D2" fill-opacity=".357" fill-rule="evenodd" d="M.079 55.25c.043 2.888.327 4.575.63 3.75.856-2.327 3.5-5.107 6.791-7.139l3-1.854-5.25-.003L0 50zm23.51-3.359C28.561 54.923 31 58.739 31 63.487c0 7.994-6.961 14.51-15.5 14.51-5.262 0-10.42-2.688-13.23-6.895L0 67.704V205h103v-48.3l-2.864 3.9c-6.488 8.833-14.335 12.926-28.115 14.666-13.856 1.748-27.562-.429-42.202-6.706-1.354-.581-1.742-.075-2 2.61l-.319 3.33h-24l-.261-42.75L2.979 89H28l.115 12.75c.071 7.9.384 11.419.821 9.25 1.755-8.698 9.31-16.505 19.373-20.017 14.129-4.932 40.931-2.926 51.476 3.852 2.017 1.297-6.5 18.521-8.684 17.562-13.937-6.122-31.375-6.98-36.556-1.799-.85.85-1.545 2.851-1.545 4.448 0 4.058 3.059 5.382 19.202 8.31 15.512 2.815 21.866 5.569 27.186 11.784l3.612 4.22V89h24v9.374l2.75-2.633c7.195-6.89 22.404-9.62 34.84-6.254 11.524 3.12 21.204 10.969 26.191 21.239l1.566 3.226 3.901-5.97c6.466-9.895 16.457-16.528 28.752-19.086 6.828-1.42 19.906-.613 26.25 1.62l4.75 1.672v31.04l-2.784-5.329c-2.265-4.336-3.804-5.867-8.25-8.211-4.722-2.488-6.249-2.812-11.216-2.379-7.349.641-13.541 4.196-16.511 9.479-4.182 7.441-4.762 7.212 18.261 7.212H256v15h-20.5c-13.647 0-20.5.351-20.5 1.05 0 3.984 6.487 11.003 12.484 13.508 5.627 2.351 16.63 2.175 23.298-.372l5.282-2.018-.282 11.166-.282 11.166-5.5 1.154c-11.84 2.483-26.437.813-36.675-4.196-6.636-3.247-14.634-10.423-17.981-16.134l-2.605-4.444-2.963 5.188c-11.198 19.607-37.343 26.791-56.193 15.44L128 167.146v37.869l64.25-.258 64.25-.257.31-60c.17-33 .009-67.763-.358-77.25L255.785 50l-117.642.004c-115.644.003-117.591.035-114.554 1.887M.473 136.5c0 37.95.125 53.33.277 34.177s.152-50.203-.001-69C.597 82.88.473 98.55.473 136.5M139.5 110.662c-8.111 4.276-11.799 11.073-11.733 21.622.08 12.77 7.071 21.225 18.529 22.407 14.556 1.502 24.883-9.75 23.45-25.553-.808-8.912-5.365-15.778-12.464-18.778-4.326-1.829-14.054-1.664-17.782.302M28.197 140l-.034 22.5 3.093-6.821c2.278-5.024 3.507-6.691 4.668-6.326.867.273 4.326 1.648 7.688 3.055 17.915 7.503 40.494 4.133 35.451-5.29-1.325-2.477-4.647-3.51-19.563-6.089-19.673-3.401-28.466-9.107-30.55-19.828-.396-2.036-.735 6.424-.753 18.799"/></svg>