<svg xmlns="http://www.w3.org/2000/svg" width="256" height="256"><path fill="#1976D2" fill-opacity=".016" fill-rule="evenodd" d="M0 128.004v128.004l128.25-.254 128.25-.254.254-127.75L257.008 0H0zm.485.496c0 70.4.119 99.053.265 63.672s.146-92.98 0-128S.485 58.1.485 128.5"/><path fill="#1976D2" fill-opacity=".179" fill-rule="evenodd" d="M105.555 1.614C79.349 6.344 56.252 18.626 36.75 38.198 30.838 44.132 26 49.44 26 49.993 26 50.547 27.139 51 28.532 51c3.752 0 8.983 2.47 10.837 5.117 2.024 2.889 2.115 10.047.175 13.798-3.708 7.17-18.071 8.179-23.489 1.651-.715-.861-1.65-1.566-2.077-1.566-1.36 0-7.709 16.414-10.501 27.147C-.127 111.003-1.06 134.67 1.433 149c4.698 27.007 16.738 50.243 36.031 69.536C56.59 237.662 80 249.863 106.381 254.454c11.381 1.981 31.857 1.981 43.238 0 10.47-1.822 26.656-7.062 35.552-11.51 24.857-12.426 47.115-35.177 58.753-60.055 2.158-4.614 4.218-9.57 4.577-11.013l.653-2.624-11.827-.48c-8.867-.36-13.234-1.023-17.446-2.649-8.513-3.286-15.839-9.055-20.315-15.998l-3.935-6.103-2.861 5.239c-6.548 11.986-17.258 18.751-30.943 19.543-10.482.607-17.691-1.054-23.36-5.381-2.466-1.883-4.705-3.423-4.976-3.423s-.491 8.325-.491 18.5V197h-21.964l-.268-23.75-.268-23.75-2.221 4.153c-2.827 5.286-8.281 9.785-15.279 12.601-4.861 1.957-7.3 2.212-21 2.198-15.674-.017-19.578-.754-31.25-5.895-1.457-.642-1.75-.25-1.75 2.336V168H16V88h23.05l-.275 35c-.151 19.251-.02 35.001.291 35 .312 0 1.873-2.812 3.47-6.25 1.597-3.437 2.96-6.368 3.029-6.512s2.331.713 5.025 1.905c7.763 3.434 14.313 4.832 22.692 4.845 9.262.014 14.374-1.77 15.267-5.329 1.445-5.755-1.787-7.615-17.601-10.13-14.879-2.367-19.849-4.167-24.589-8.907-6.73-6.73-8.059-16.435-3.475-25.375 2.585-5.041 5.555-7.643 12.192-10.682 9.752-4.464 21.555-5.665 34.711-3.53C97.401 89.271 107 92.732 107 94.242c0 1.556-6.171 14.758-6.898 14.757-.331 0-3.077-.981-6.102-2.18-7.949-3.151-24.547-3.278-28.67-.22-3.891 2.886-4.367 7.675-.983 9.892 1.355.888 8.631 2.734 16.17 4.102 8.213 1.49 15.612 3.452 18.464 4.897 4.94 2.504 10.019 7.617 10.019 10.087 0 .783.45 1.423 1 1.423.639 0 1-8.833 1-24.5V88h21v4.5c0 5.125.71 5.502 3.924 2.081 1.25-1.331 4.591-3.468 7.424-4.75 4.295-1.943 6.816-2.331 15.152-2.328 9.161.002 10.564.269 16.725 3.185 7.542 3.57 14.138 9.75 17.825 16.699 1.345 2.537 2.672 4.601 2.948 4.587s1.328-1.817 2.337-4.006c6.735-14.607 29.23-24.151 47.137-19.999 2.184.506 4.115.778 4.289.603.49-.489-4.188-12.5-7.247-18.607-11.517-22.998-33.857-45.169-57.343-56.909-8.896-4.448-25.082-9.688-35.552-11.51-11.044-1.923-33.229-1.888-44.064.068M227.5 105.896c-5.981 2.769-11.5 9.569-11.5 14.169 0 .549 8.262.935 20 .935s20-.386 20-.935c0-2.214-2.328-6.78-4.814-9.441-3.67-3.93-9.787-6.58-15.186-6.58-2.475 0-6.3.833-8.5 1.852m-78 .018c-9.507 2.382-14.969 8.806-16.18 19.029-1.833 15.483 9.331 27.585 23.67 25.657 5.86-.788 11.872-5.052 15.01-10.644 2.048-3.651 2.5-5.811 2.5-11.956 0-6.398-.408-8.194-2.777-12.223-4.427-7.533-14.206-11.873-22.223-9.863m67.127 28.88c-.27.437.33 2.627 1.332 4.866 1.995 4.456 6.645 8.429 11.94 10.202 4.826 1.615 14.95 1.409 20.301-.414 4.084-1.392 4.619-1.935 5.167-5.25.336-2.034.616-5.161.622-6.948L256 134h-19.441c-10.693 0-19.662.357-19.932.794"/><path fill="#1976D2" fill-opacity=".248" fill-rule="evenodd" d="M115 .461c-.825.197-4.875.899-9 1.559-25.049 4.011-50.699 17.534-69.502 36.645-10.45 10.621-10.617 11.024-5.119 12.409C37.971 52.734 41.5 56.89 41.5 62.992c0 8.373-5.609 13.432-14.749 13.305-4.686-.065-9.069-2.055-11.381-5.168-.948-1.277-1.452-.888-3.138 2.425C9.064 79.781 4.402 93.722 2.387 103c-2.586 11.904-2.586 38.096 0 50 11.215 51.634 49.037 89.387 100.845 100.66 11.546 2.512 37.99 2.512 49.536 0 40.305-8.77 72.606-33.646 89.736-69.108 7.946-16.448 8.298-15.031-3.766-15.172-11.77-.139-19.778-2.272-27.761-7.395-5.472-3.511-11.233-9.684-13.213-14.155-.689-1.556-1.481-2.83-1.76-2.83s-1.612 2.083-2.962 4.628c-10.439 19.676-37.975 26.237-56.063 13.357l-2.933-2.089-.273 18.302-.273 18.302h-23l-.5-22.632-.5-22.632-2.32 3.674c-5.487 8.691-17.538 13.439-34.18 13.466-11.492.018-19.448-1.362-28.194-4.892l-5.693-2.298-.307 2.983-.306 2.983-11.25.174L16 168.5V88h23l.048 34.75.048 34.75 3.072-6c1.689-3.3 3.225-6.17 3.414-6.379.188-.208 3.172.799 6.63 2.239 8.101 3.371 13.775 4.585 21.57 4.616 10.827.042 17.194-4.312 13.824-9.454-1.869-2.853-5.024-3.873-18.606-6.016-10.287-1.622-19.546-4.913-23.364-8.303-5.385-4.781-7.257-17.047-3.77-24.703 2.469-5.422 8.658-10.772 15.753-13.616 5.192-2.082 7.521-2.359 19.881-2.371 11.773-.011 15.113.343 21 2.227 10.403 3.329 10.114 2.73 5.874 12.137-2.911 6.46-4.039 8.063-5.287 7.514-7.934-3.489-13.318-4.705-21.087-4.764-9.845-.075-14.555 1.751-15.637 6.063-1.086 4.325 2.794 6.776 13.804 8.72 14.186 2.505 19.004 3.694 22.833 5.638 3.654 1.855 9.363 7.371 10.298 9.952.299.825.58-9.412.623-22.75L110 88h23v8.013l4.072-2.95c6.627-4.801 12.785-6.352 23.383-5.888 7.934.347 10.184.865 15.832 3.645 7.173 3.532 14.109 10.36 17.514 17.243l2.028 4.099 1.718-3.62c3.175-6.691 10.116-13.266 18.236-17.276l7.627-3.766h26.247l-2.424-6C230.612 40.353 196.664 11.865 153 2.419 146.235.955 118.834-.457 115 .461m115.037 104.713c-6.379 1.83-11.491 6.975-13.49 13.576l-.682 2.25h40.27l-.694-2.25c-2.185-7.083-6.935-11.732-13.941-13.646-4.706-1.286-6.783-1.273-11.463.07m-84.537 2.395c-8.054 4.181-11.794 10.719-11.794 20.619 0 13.42 7.868 22.012 20.159 22.012 10.596 0 18.064-6.278 20.074-16.876 2.855-15.057-6.2-27.334-20.149-27.318-2.91.004-6.64.707-8.29 1.563m71.5 28.497c0 1.846 2.128 5.316 5.343 8.711 3.442 3.636 10.574 6.223 17.157 6.223 4.276 0 14.095-2.5 14.832-3.776.23-.398.732-3.312 1.115-6.474l.697-5.75h-19.572c-13.186 0-19.572.348-19.572 1.066"/><path fill="#1976D2" fill-opacity=".161" fill-rule="evenodd" d="M113.845 1.072c-30.69 3.789-58.71 17.976-79.321 40.162l-7.593 8.173 3.785 1.122c8.784 2.605 11.865 6.626 10.994 14.352-1.23 10.916-15.855 15.917-24.723 8.455-1.689-1.422-3.193-2.416-3.343-2.21-1.077 1.488-5.837 13.588-7.524 19.126C2.236 103.005.648 113.959.648 128c0 21.43 4.226 39.02 13.934 58 28.612 55.938 92.359 82.36 152.792 63.33 31.402-9.888 59.34-33.895 74.551-64.063 2.283-4.527 4.751-9.927 5.483-11.999l1.332-3.768-7.59.337c-14.665.65-26.652-3.434-36.004-12.267-2.944-2.781-6.24-6.794-7.323-8.918l-1.97-3.861-2.006 4.054c-9.773 19.752-38.522 27.59-55.661 15.175L134 160.987V198h-24v-45.155l-3.294 4.327c-3.875 5.09-13.451 10.34-21.592 11.837-12.417 2.284-30.302.34-40.708-4.424L39 162.111V169H14.978l.261-40.75.261-40.75 11.75-.282L39 86.937l.067 12.281c.066 11.884.11 12.127 1.355 7.495 2.904-10.797 13.43-17.943 29.401-19.959 7.433-.938 10.607-.855 18.825.494 9.8 1.609 19.352 4.854 19.352 6.576 0 1.712-7.066 16.176-7.903 16.176-.464 0-3.037-1-5.72-2.221-4.089-1.863-6.677-2.226-16.017-2.25-12.556-.033-15.36 1.186-15.36 6.677 0 3.786 3.067 5.073 18.615 7.814 6.512 1.148 13.65 2.892 15.863 3.876 5.07 2.254 10.174 6.529 11.219 9.398.464 1.275 1.014-7.922 1.303-21.794l.5-24h22l.305 4.201.305 4.202 4.469-3.411c16.643-12.704 45.924-5.168 55.857 14.376l2.311 4.548 2.023-3.965c2.8-5.488 12.178-14.085 18.477-16.938 9.263-4.195 24.314-5.537 31.436-2.804 2.285.877 1.197-2.23-5.679-16.209-17.927-36.447-50.682-61.292-90.853-68.912-10.645-2.019-27.638-2.71-37.306-1.516M228 106.121c-4.894 1.945-11 9.345-11 13.329 0 1.346 2.507 1.55 19 1.55 21.481 0 21.061.192 16.514-7.566-3.218-5.491-9.095-8.458-16.58-8.371-2.989.035-6.559.511-7.934 1.058m-80.789.95c-4.494 1.375-10.855 7.984-12.14 12.614-1.627 5.857-1.259 14.313.819 18.815 7.477 16.2 31.547 14.856 37.134-2.074 1.669-5.056.837-15.141-1.646-19.946-4.143-8.018-14.956-12.228-24.167-9.409M39.12 136l-.014 21.5 3.102-6.798c1.714-3.756 3.592-6.577 4.197-6.306 12.867 5.769 23.827 8.223 31.595 7.073 7.272-1.077 9.956-3.01 9.985-7.193.022-3.254-3.768-4.781-17.765-7.158-19.535-3.318-27.114-7.849-29.792-17.81-1.167-4.34-1.294-2.715-1.308 16.692m178.429 1.25c1.288 4.24 5.735 8.988 10.317 11.015 8.19 3.623 23.707 2.27 26.142-2.279.545-1.02.992-3.909.992-6.42V135h-38.135z"/></svg>