<svg xmlns="http://www.w3.org/2000/svg" width="256" height="256"><path fill="#1976D2" fill-opacity=".016" fill-rule="evenodd" d="M0 128.004v128.004l128.25-.254 128.25-.254.254-127.75L257.008 0H0zm.485.496c0 70.4.119 99.053.265 63.672s.146-92.98 0-128S.485 58.1.485 128.5"/><path fill="#1976D2" fill-opacity=".167" fill-rule="evenodd" d="M7.241 1.995C5.448 3.088 3.088 5.448 1.995 7.241.042 10.444.007 12.514.007 128s.035 117.556 1.988 120.759c1.093 1.793 3.453 4.153 5.246 5.246 3.203 1.953 5.273 1.988 120.759 1.988 114.941 0 117.57-.043 120.715-1.96 1.768-1.079 4.355-3.768 5.75-5.977L257 244.04V126.353c0-64.727-.298-117.388-.663-117.023-.365.364-1.486-.69-2.491-2.343s-3.294-3.899-5.087-4.992C245.556.042 243.486.007 128 .007S10.444.042 7.241 1.995M.484 128c0 65.175.12 91.838.266 59.25s.146-85.912 0-118.5S.484 62.825.484 128m18.815-75.04C7.892 59.914 13.303 76 27.049 76c5.414 0 10.673-2.561 12.495-6.085 1.94-3.751 1.849-10.909-.175-13.798-3.548-5.067-14.193-6.741-20.07-3.157m45.877 35.11c-5.536 1.09-14.99 5.411-18.02 8.238-3.243 3.024-6.081 8.866-6.778 13.949-.893 6.515 1.196 12.58 5.981 17.365 4.74 4.74 9.71 6.54 24.589 8.907 15.814 2.515 19.046 4.375 17.601 10.13-.893 3.559-6.005 5.343-15.267 5.329-8.379-.013-14.929-1.411-22.692-4.845-2.694-1.192-4.956-2.049-5.025-1.905s-1.432 3.075-3.029 6.512c-1.597 3.438-3.158 6.25-3.47 6.25-.311.001-.442-15.749-.291-35l.275-35H16v80h23v-3.107c0-2.586.293-2.978 1.75-2.336 11.672 5.141 15.576 5.878 31.25 5.895 13.7.014 16.139-.241 21-2.198 6.998-2.816 12.452-7.315 15.279-12.601l2.221-4.153.268 23.75.268 23.75H133v-18.5c0-10.175.221-18.5.491-18.5.271 0 2.51 1.54 4.976 3.423 5.669 4.327 12.878 5.988 23.36 5.381 13.677-.792 24.396-7.557 30.933-19.526l2.853-5.222 4.206 6.398c2.918 4.439 6.035 7.619 10.181 10.387 9.378 6.262 14.575 7.659 28.5 7.659 6.6 0 13.238-.346 14.75-.769l2.75-.769v-19.77l-5.011 1.904c-5.676 2.157-15.834 2.526-21.09.766-5.295-1.773-9.945-5.746-11.94-10.202-1.002-2.239-1.602-4.429-1.332-4.866s9.239-.794 19.932-.794H256v-13h-20c-11.738 0-20-.386-20-.935 0-4.6 5.519-11.4 11.5-14.169 9.834-4.553 22.819.052 27.083 9.604 1.201 2.692 1.343 1.599 1.378-10.656L256 91.188l-4.75-1.647c-11.253-3.902-25.604-2.915-36.33 2.499-6.742 3.404-14.043 10.415-16.585 15.928-1.009 2.189-2.061 3.992-2.337 4.006s-1.603-2.05-2.948-4.587c-3.687-6.949-10.283-13.129-17.825-16.699-6.161-2.916-7.564-3.183-16.725-3.185-8.336-.003-10.857.385-15.152 2.328-2.833 1.282-6.174 3.419-7.424 4.75C132.71 98.002 132 97.625 132 92.5V88h-21v24.5c0 15.667-.361 24.5-1 24.5-.55 0-1-.64-1-1.423 0-2.47-5.079-7.583-10.019-10.087-2.852-1.445-10.251-3.407-18.464-4.897-7.539-1.368-14.815-3.214-16.17-4.102-3.384-2.217-2.908-7.006.983-9.892 4.123-3.058 20.721-2.931 28.67.22 3.025 1.199 5.771 2.18 6.102 2.18.727.001 6.898-13.201 6.898-14.757 0-1.51-9.599-4.971-17.213-6.207-7.342-1.191-18.46-1.175-24.611.035m84.324 17.844c-9.507 2.382-14.969 8.806-16.18 19.029-1.833 15.483 9.331 27.585 23.67 25.657 5.86-.788 11.872-5.052 15.01-10.644 2.048-3.651 2.5-5.811 2.5-11.956 0-6.398-.408-8.194-2.777-12.223-4.427-7.533-14.206-11.873-22.223-9.863"/><path fill="#1976D2" fill-opacity=".139" fill-rule="evenodd" d="M8.218 1.656c-1.805.894-4.28 3.024-5.5 4.734L.5 9.5.238 126.823C-.053 256.798-.46 248.395 6.373 253.27L9.5 255.5h237l3.009-2.147c1.656-1.18 4.018-4.035 5.25-6.344l2.241-4.198V126.346c0-64.055-.355-116.245-.788-115.977s-1.368-.825-2.078-2.429-2.718-3.933-4.462-5.178L246.5.5 129 .266C22.279.054 11.199.181 8.218 1.656M.484 128c0 64.625.119 91.063.266 58.75.146-32.312.146-85.187 0-117.5C.603 36.938.484 63.375.484 128M23.5 50.941C16.877 52.519 13 57.157 13 63.5c0 7.547 5.689 12.731 13.973 12.731 9.154 0 14.527-4.897 14.527-13.239 0-3.997-.513-5.397-2.891-7.878-1.589-1.659-4.289-3.297-6-3.64-1.71-.343-3.784-.764-4.609-.935s-2.85.009-4.5.402M61 88.826C50.452 92.338 44.561 97 41.551 104.218c-3.12 7.48-1.092 19.389 4.085 23.985 3.818 3.39 13.077 6.681 23.364 8.303 13.582 2.143 16.737 3.163 18.606 6.016 3.37 5.142-2.997 9.496-13.824 9.454-7.795-.031-13.469-1.245-21.57-4.616-3.458-1.44-6.442-2.447-6.63-2.239-.189.209-1.725 3.079-3.414 6.379l-3.072 6-.048-34.75L39 88H16l-.002 40.25-.002 40.25 11.502-.311 11.502-.31v-5.739l5.75 2.321c8.962 3.618 16.816 4.951 28.75 4.882 16.543-.096 28.145-4.736 33.694-13.475l2.306-3.632.5 22.632.5 22.632h23l.273-18.302.273-18.302 2.933 2.089c8.559 6.095 18.61 7.985 29.88 5.621 11.849-2.486 20.937-9.089 26.224-19.056 1.327-2.503 2.642-4.55 2.921-4.55s1.071 1.274 1.76 2.83c3.477 7.853 13.582 15.865 24.488 19.414 6.796 2.212 24.471 2.82 30.248 1.04l3-.924.285-10.18c.157-5.599.022-10.18-.3-10.18-.321 0-1.901.681-3.51 1.513-7.825 4.046-22.476 2.62-28.635-2.787-3.33-2.924-6.34-7.518-6.34-9.676 0-.697 6.552-1.05 19.5-1.05H256v-14h-40.135l.682-2.25c.374-1.237 1.561-3.704 2.638-5.482 7.693-12.71 28.711-11.436 34.918 2.116l1.885 4.116-.244-14.46-.244-14.46-6-1.862c-4.617-1.432-8.325-1.782-16.091-1.52-9.299.314-10.686.635-17.672 4.087-8.072 3.99-15.024 10.585-18.19 17.257l-1.718 3.62-2.028-4.099c-3.405-6.883-10.341-13.711-17.514-17.243-5.648-2.78-7.898-3.298-15.832-3.645-10.598-.464-16.756 1.087-23.383 5.888L133 96.013V88h-23l-.079 24.25c-.043 13.338-.324 23.575-.623 22.75-.935-2.581-6.644-8.097-10.298-9.952-3.829-1.944-8.647-3.133-22.833-5.638-11.01-1.944-14.89-4.395-13.804-8.72 1.951-7.774 20.505-8.431 36.724-1.299 2.175.956 9.713-15.256 7.701-16.563C98.86 87.676 71.606 85.294 61 88.826m84.481 18.568c-3.47 1.512-9.129 7.599-10.659 11.467-.575 1.451-1.061 5.666-1.08 9.366-.071 13.348 7.827 21.973 20.123 21.973 10.596 0 18.064-6.278 20.074-16.876 2.858-15.073-6.236-27.388-20.149-27.285-2.91.022-6.648.631-8.309 1.355"/><path fill="#1976D2" fill-opacity=".3" fill-rule="evenodd" d="M10.352 1.092C5.826 2.403 1.262 8.029.522 13.208.184 15.569.041 68.88.204 131.677.498 245.205.512 245.87 2.562 248.615c1.134 1.519 3.304 3.689 4.823 4.823 2.746 2.051 3.374 2.063 118.27 2.328 76.968.178 116.786-.077 119.336-.763 4.226-1.139 10.009-6.903 10.009-9.979 0-1.048.45-2.184 1-2.524.657-.406 1-40.03 1-115.618 0-76.412-.336-114.793-1-114.382-.55.34-1-.293-1-1.406 0-3.087-5.694-8.915-9.832-10.064-4.697-1.305-230.305-1.245-234.816.062M.483 128c0 63.525.12 89.513.267 57.75.146-31.762.146-83.737 0-115.5C.603 38.488.483 64.475.483 128m19.932-76.579c-6.25 2.722-9.504 9.75-7.427 16.043 3.229 9.783 16.611 12.596 24.691 5.191 4.357-3.993 5.537-10.402 2.866-15.568-3.041-5.881-13.119-8.718-20.13-5.666m45.608 35.72c-7.489 1.241-17.702 6.541-21.336 11.072-1.638 2.043-3.557 5.868-4.265 8.5-1.245 4.632-1.289 4.389-1.355-7.495L39 86.937l-11.75.281-11.75.282-.261 40.75-.261 40.75H39v-6.889l5.406 2.474c10.406 4.764 28.291 6.708 40.708 4.424 8.141-1.497 17.717-6.747 21.592-11.837l3.294-4.327V198h24v-37.013l4.186 3.033c17.139 12.415 45.888 4.577 55.661-15.175l2.006-4.054 1.97 3.861c2.754 5.399 11.645 13.492 18.177 16.547 9.968 4.661 23.728 6.125 34.951 3.718l5.049-1.083v-21.722l-4.75 2.107c-6.438 2.854-16.998 2.883-23.358.062-4.606-2.042-9.054-6.786-10.343-11.031l-.684-2.25H256V90.274l-5.25-1.609c-11.858-3.634-23.872-2.993-34.503 1.839-6.305 2.866-15.681 11.466-18.477 16.947l-2.023 3.965-2.311-4.548c-9.933-19.544-39.214-27.08-55.857-14.376l-4.469 3.411-.305-4.202-.305-4.201h-22l-.5 24c-.289 13.872-.839 23.069-1.303 21.794-1.045-2.869-6.149-7.144-11.219-9.398-2.213-.984-9.351-2.728-15.863-3.876C66.067 117.279 63 115.992 63 112.206c0-5.491 2.804-6.71 15.36-6.677 9.34.024 11.928.387 16.017 2.25C97.06 109 99.633 110 100.097 110c.837 0 7.903-14.464 7.903-16.176 0-1.595-9.026-4.818-17.751-6.34-9.355-1.631-15.891-1.724-24.226-.343M228 106.121c-4.894 1.945-11 9.345-11 13.329 0 1.346 2.507 1.55 19 1.55 21.481 0 21.061.192 16.514-7.566-3.218-5.491-9.095-8.458-16.58-8.371-2.989.035-6.559.511-7.934 1.058m-80.789.95c-4.494 1.375-10.855 7.984-12.14 12.614-1.627 5.857-1.259 14.313.819 18.815 7.477 16.2 31.547 14.856 37.134-2.074 1.669-5.056.837-15.141-1.646-19.946-4.143-8.018-14.956-12.228-24.167-9.409M39.12 136l-.014 21.5 3.102-6.798c1.714-3.756 3.592-6.577 4.197-6.306 12.867 5.769 23.827 8.223 31.595 7.073 7.272-1.077 9.956-3.01 9.985-7.193.022-3.254-3.768-4.781-17.765-7.158-19.535-3.318-27.114-7.849-29.792-17.81-1.167-4.34-1.294-2.715-1.308 16.692"/></svg>